<svg width="35" height="36" viewBox="0 0 35 36" fill="none" xmlns="http://www.w3.org/2000/svg">
<path d="M2.9165 31.125H32.0832" stroke="#521B26" stroke-width="3" stroke-linecap="round" stroke-linejoin="round"/>
<path d="M7.29134 4.875H13.8538C14.8208 4.875 15.7481 5.25911 16.4318 5.94284C17.1156 6.62657 17.4997 7.5539 17.4997 8.52083V31.125H3.64551V8.52083C3.64551 7.5539 4.02962 6.62657 4.71335 5.94284C5.39707 5.25911 6.32441 4.875 7.29134 4.875Z" stroke="#521B26" stroke-width="3" stroke-linecap="round" stroke-linejoin="round"/>
<path d="M17.5 11.4375H27.7083C28.1871 11.4375 28.6612 11.5318 29.1035 11.715C29.5459 11.8982 29.9478 12.1668 30.2863 12.5053C30.6249 12.8439 30.8934 13.2458 31.0766 13.6881C31.2599 14.1305 31.3542 14.6046 31.3542 15.0833V31.125H17.5V11.4375Z" stroke="#521B26" stroke-width="3" stroke-linecap="round" stroke-linejoin="round"/>
<path d="M22.9688 24.5625H25.8854" stroke="#BE8233" stroke-width="3" stroke-linecap="round" stroke-linejoin="round"/>
<path d="M22.9688 18H25.8854" stroke="#BE8233" stroke-width="3" stroke-linecap="round" stroke-linejoin="round"/>
<path d="M9.11426 11.4375H12.0309" stroke="#BE8233" stroke-width="3" stroke-linecap="round" stroke-linejoin="round"/>
<path d="M9.17285 18H11.9729" stroke="#BE8233" stroke-width="3" stroke-linecap="round" stroke-linejoin="round"/>
<path d="M9.11426 24.5625H12.0309" stroke="#BE8233" stroke-width="3" stroke-linecap="round" stroke-linejoin="round"/>
</svg>
